<svg width="14" height="14" viewBox="0 0 14 14" fill="none" xmlns="http://www.w3.org/2000/svg">
<g clip-path="url(#clip0_142_2)">
<path d="M10.3366 13.1551C12.5187 11.9698 14 9.65787 14 7C14 3.13401 10.866 0 7 0C3.13401 0 0 3.13401 0 7C0 9.87047 1.72776 12.3374 4.20007 13.4176L4.2 13.4175L4.9 12.6C4.44112 12.6 4.05409 12.4426 3.73894 12.1277C3.42378 11.8129 3.26636 11.4259 3.26667 10.9667V4.9C3.26667 4.48777 3.37369 4.15909 3.58774 3.91393C3.80178 3.66877 4.08365 3.48211 4.43334 3.35393C4.78334 3.22575 5.18203 3.1402 5.6294 3.09726C6.07678 3.05433 6.53365 3.03302 7 3.03333C7.51334 3.03333 7.99758 3.0548 8.45274 3.09773C8.90789 3.14066 9.30456 3.22622 9.64274 3.3544C9.98092 3.48257 10.2472 3.66924 10.4417 3.9144C10.6361 4.15955 10.7333 4.48809 10.7333 4.9V10.9667C10.7333 11.4256 10.5759 11.8126 10.2611 12.1277C9.94623 12.4429 9.5592 12.6003 9.1 12.6L9.8 13.4175C9.98309 13.3375 10.1621 13.2499 10.3366 13.1551Z" fill="black"/>
<path d="M9.33334 13.6017L7.93334 12.6H6.06667L4.66667 13.6017L4.6666 13.6017C5.39644 13.8596 6.18183 14 7 14C7.81816 14 8.60351 13.8596 9.33334 13.6017Z" fill="black"/>
<path d="M5.36667 11.2C5.56889 11.2 5.73612 11.1339 5.86834 11.0017C6.00056 10.8694 6.06667 10.7022 6.06667 10.5C6.06667 10.2978 6.00056 10.1306 5.86834 9.99833C5.73612 9.86611 5.56889 9.8 5.36667 9.8C5.16445 9.8 4.99723 9.86611 4.865 9.99833C4.73278 10.1306 4.66667 10.2978 4.66667 10.5C4.66667 10.7022 4.73278 10.8694 4.865 11.0017C4.99723 11.1339 5.16445 11.2 5.36667 11.2Z" fill="black"/>
<path d="M4.2 8.4H6.53334V7H4.2V8.4Z" fill="black"/>
<path d="M7.46667 8.4H9.8V7H7.46667V8.4Z" fill="black"/>
<path d="M8.63334 11.2C8.83556 11.2 9.00278 11.1339 9.135 11.0017C9.26723 10.8694 9.33334 10.7022 9.33334 10.5C9.33334 10.2978 9.26723 10.1306 9.135 9.99833C9.00278 9.86611 8.83556 9.8 8.63334 9.8C8.43111 9.8 8.26389 9.86611 8.13167 9.99833C7.99945 10.1306 7.93334 10.2978 7.93334 10.5C7.93334 10.7022 7.99945 10.8694 8.13167 11.0017C8.26389 11.1339 8.43111 11.2 8.63334 11.2Z" fill="black"/>
</g>
<defs>
<clipPath id="clip0_142_2">
<rect width="14" height="14" fill="white"/>
</clipPath>
</defs>
</svg>
